<svg width="23" height="41" viewBox="0 0 23 41" fill="none" xmlns="http://www.w3.org/2000/svg">
<path d="M21.3241 0.00852758L16.0093 0C10.0383 0 6.17951 3.95894 6.17951 10.0864V14.7369H0.835707C0.373933 14.7369 0 15.1113 0 15.5731V22.3111C0 22.773 0.374361 23.1469 0.835707 23.1469H6.17951V40.1492C6.17951 40.611 6.55344 40.9849 7.01522 40.9849H13.9874C14.4492 40.9849 14.8231 40.6105 14.8231 40.1492V23.1469H21.0713C21.533 23.1469 21.9069 22.773 21.9069 22.3111L21.9095 15.5731C21.9095 15.3514 21.8213 15.139 21.6648 14.9821C21.5083 14.8252 21.2951 14.7369 21.0734 14.7369H14.8231V10.7946C14.8231 8.89982 15.2746 7.9379 17.7429 7.9379L21.3232 7.93662C21.7846 7.93662 22.1585 7.56225 22.1585 7.10091V0.84423C22.1585 0.383316 21.785 0.00938034 21.3241 0.00852758Z" fill="white"/>
</svg>
