<svg width="40" height="40" viewBox="0 0 40 40" fill="none" xmlns="http://www.w3.org/2000/svg">
<path d="M39.8798 11.7542C39.7824 9.62525 39.4442 8.17138 38.9499 6.89942C38.4479 5.56488 37.6606 4.35608 36.6431 3.35694C35.6442 2.33947 34.4351 1.55182 33.1006 1.0495C31.8283 0.555419 30.3747 0.217591 28.2458 0.120849C26.113 0.0231934 25.4315 0 20 0C14.5685 0 13.887 0.0231934 11.7542 0.120239C9.62525 0.217591 8.17169 0.555725 6.89942 1.05011C5.56488 1.55213 4.35608 2.33947 3.35694 3.35694C2.33947 4.35577 1.55182 5.56457 1.0495 6.89911C0.555419 8.17138 0.217591 9.62525 0.120849 11.7538C0.0231934 13.887 0 14.5682 0 19.9997C0 25.4315 0.0231934 26.113 0.120849 28.2458C0.217896 30.3744 0.55603 31.8283 1.05041 33.1006C1.55243 34.4349 2.33978 35.6439 3.35723 36.6427C4.35608 37.6602 5.56519 38.4475 6.89971 38.9496C8.17169 39.4442 9.62556 39.7821 11.7544 39.8794C13.8877 39.9768 14.5688 39.9997 20.0003 39.9997C25.4318 39.9997 26.1133 39.9768 28.2462 39.8794C30.3751 39.7821 31.8286 39.4442 33.1009 38.9496C35.7873 37.9107 37.9111 35.7871 38.9499 33.1006C39.4446 31.8283 39.7824 30.3744 39.8798 28.2458C39.9768 26.1127 40 25.4315 40 20C40 14.5682 39.9768 13.887 39.8798 11.7542ZM36.2797 28.0819C36.1907 30.032 35.8649 31.091 35.5911 31.7957C34.9182 33.54 33.5398 34.9185 31.7953 35.5914C31.0907 35.8651 30.0318 36.1911 28.0817 36.2799C25.9733 36.3763 25.3406 36.3965 20 36.3965C14.6591 36.3965 14.0267 36.3763 11.9181 36.2799C9.96826 36.1911 8.9093 35.8651 8.20434 35.5914C7.33582 35.2707 6.54999 34.7595 5.90485 34.0952C5.24048 33.4501 4.72931 32.6645 4.40857 31.7957C4.13482 31.091 3.8089 30.032 3.72009 28.0819C3.62397 25.9733 3.60352 25.3406 3.60352 20.0003C3.60352 14.6598 3.62397 14.0274 3.72009 11.9183C3.8092 9.96826 4.13482 8.9093 4.40857 8.20465C4.72931 7.33582 5.24079 6.54999 5.90485 5.90485C6.54999 5.24048 7.33582 4.72931 8.20465 4.40888C8.9093 4.13482 9.96826 3.8092 11.9183 3.72009C14.0271 3.62397 14.6598 3.60352 20 3.60352H19.9997C25.34 3.60352 25.9726 3.62397 28.0817 3.7204C30.0318 3.8092 31.0904 4.13513 31.7953 4.40888C32.6639 4.72961 33.4497 5.24079 34.0949 5.90485C34.7592 6.54999 35.2704 7.33582 35.5909 8.20465C35.8649 8.9093 36.1907 9.96826 36.2797 11.9183C36.3758 14.0271 36.3962 14.6598 36.3962 20C36.3962 25.3406 36.376 25.9729 36.2797 28.0819Z" fill="white"/>
</svg>
