<svg width="40" height="33" viewBox="0 0 40 33" fill="none" xmlns="http://www.w3.org/2000/svg">
<path d="M40 3.87775C38.4264 4.55809 36.8523 4.98295 35.2794 5.1536C37.056 4.08219 38.2579 2.56854 38.8839 0.612786C37.2587 1.58199 35.5246 2.24508 33.6806 2.6024C32.0558 0.86771 30.0596 0 27.6905 0C25.4232 0 23.4904 0.803458 21.8906 2.41073C20.292 4.01794 19.4925 5.96083 19.4925 8.2397C19.4925 8.85185 19.5601 9.48134 19.6955 10.1276C16.3452 9.9575 13.2023 9.11144 10.2663 7.58929C7.33057 6.06697 4.83904 4.03886 2.79175 1.50488C2.04722 2.78014 1.67484 4.16644 1.67484 5.66303C1.67484 7.07463 2.00472 8.38434 2.66497 9.59188C3.32477 10.7992 4.2133 11.777 5.33012 12.5254C4.01009 12.4743 2.77492 12.1256 1.62452 11.4793V11.5813C1.62452 13.5713 2.24634 15.3184 3.48986 16.824C4.73354 18.3294 6.30302 19.277 8.19796 19.6684C7.48723 19.8552 6.76795 19.9488 6.04048 19.9488C5.56668 19.9488 5.05054 19.9063 4.49226 19.8219C5.01677 21.4712 5.9813 22.8271 7.38552 23.8906C8.79 24.9535 10.3806 25.5015 12.1573 25.5363C9.17939 27.8827 5.78686 29.0562 1.97976 29.0562C1.25205 29.0562 0.592317 29.0228 0 28.9545C3.80722 31.4201 8.00346 32.6531 12.589 32.6531C15.4993 32.6531 18.232 32.1901 20.7861 31.2631C23.3416 30.3365 25.5241 29.0948 27.3348 27.5382C29.1451 25.9822 30.7062 24.1922 32.0174 22.1685C33.3287 20.1445 34.3055 18.0315 34.949 15.8292C35.5917 13.6263 35.9132 11.4201 35.9132 9.20881C35.9132 8.73256 35.9048 8.3756 35.8878 8.13737C37.4958 6.96444 38.8662 5.54409 40 3.87775Z" fill="white"/>
</svg>
