<svg width="40" height="23" viewBox="0 0 40 23" fill="none" xmlns="http://www.w3.org/2000/svg">
<path d="M39.788 20.6106C39.7396 20.5062 39.6944 20.4195 39.6524 20.3501C38.9583 19.1003 37.6322 17.5661 35.6746 15.7473L35.6332 15.7056L35.6124 15.6852L35.5914 15.6642H35.5704C34.682 14.8173 34.1194 14.2478 33.8837 13.9562C33.4527 13.4008 33.3561 12.8386 33.5918 12.269C33.7581 11.8386 34.3835 10.9298 35.4661 9.54111C36.0355 8.80514 36.4865 8.21533 36.8197 7.77094C39.222 4.5774 40.2634 2.53669 39.9437 1.64802L39.8198 1.44034C39.7364 1.31533 39.5211 1.20094 39.1743 1.09663C38.827 0.992535 38.3828 0.975331 37.8412 1.0447L31.8434 1.08613C31.7462 1.0517 31.6073 1.0549 31.4267 1.09663C31.2462 1.13836 31.1558 1.15928 31.1558 1.15928L31.0513 1.21144L30.9685 1.27411C30.8992 1.31554 30.8228 1.38841 30.7394 1.49257C30.6563 1.59637 30.5871 1.7182 30.5315 1.857C29.8786 3.53699 29.1361 5.09897 28.303 6.54285C27.7892 7.40381 27.3174 8.14997 26.8865 8.78174C26.4561 9.4133 26.0951 9.8786 25.8038 10.1769C25.5119 10.4755 25.2488 10.7146 25.0121 10.8953C24.7762 11.0761 24.5959 11.1525 24.4709 11.1245C24.346 11.0966 24.2282 11.0689 24.1166 11.0411C23.9223 10.9161 23.7662 10.7461 23.6485 10.5309C23.5299 10.3157 23.4503 10.0449 23.4087 9.71856C23.3672 9.39206 23.3428 9.11123 23.3358 8.8751C23.3292 8.63929 23.3322 8.3057 23.3464 7.87533C23.3608 7.44474 23.3672 7.15338 23.3672 7.00064C23.3672 6.47297 23.3776 5.90028 23.3981 5.28243C23.4191 4.66457 23.4361 4.17506 23.4503 3.8144C23.4645 3.45339 23.4711 3.07147 23.4711 2.66881C23.4711 2.26615 23.4465 1.95036 23.3981 1.72119C23.3504 1.49227 23.277 1.2701 23.1803 1.05469C23.0827 0.839498 22.9401 0.673033 22.7532 0.554872C22.5657 0.436838 22.3328 0.343176 22.0555 0.273589C21.3196 0.107055 20.3824 0.0169685 19.2437 0.0029631C16.6614 -0.024755 15.0021 0.141997 14.2662 0.503004C13.9746 0.655532 13.7108 0.863937 13.4749 1.12756C13.2249 1.43313 13.1901 1.59987 13.3705 1.6273C14.2037 1.75212 14.7935 2.05068 15.1407 2.52269L15.2658 2.77285C15.3631 2.95329 15.4602 3.27279 15.5575 3.73089C15.6546 4.18898 15.7172 4.69574 15.7448 5.25084C15.8141 6.26454 15.8141 7.13232 15.7448 7.85416C15.6753 8.57633 15.6096 9.13852 15.547 9.54118C15.4843 9.94384 15.3907 10.2701 15.2658 10.5199C15.1407 10.7699 15.0574 10.9226 15.0157 10.978C14.9741 11.0335 14.9393 11.0684 14.9118 11.0821C14.7313 11.1513 14.5436 11.1865 14.3494 11.1865C14.1548 11.1865 13.9189 11.0892 13.6413 10.8947C13.3637 10.7003 13.0757 10.4332 12.7771 10.0929C12.4785 9.75266 12.1418 9.27711 11.7668 8.66627C11.3921 8.05542 11.0033 7.33349 10.6007 6.50046L10.2675 5.89633C10.0593 5.50768 9.77478 4.94177 9.41376 4.19912C9.05255 3.45617 8.73326 2.73752 8.4557 2.0433C8.34475 1.75174 8.17807 1.52978 7.95596 1.37704L7.85174 1.31437C7.78243 1.25894 7.67119 1.20007 7.5186 1.13732C7.36577 1.07468 7.20631 1.02974 7.03954 1.00208L1.33314 1.04351C0.750012 1.04351 0.354373 1.17563 0.146036 1.43947L0.0626615 1.56427C0.0210102 1.63379 0 1.74482 0 1.89763C0 2.05039 0.0416533 2.23785 0.125028 2.45981C0.958057 4.41766 1.86397 6.30585 2.84274 8.12464C3.82151 9.94347 4.67205 11.4086 5.39384 12.5186C6.11577 13.6295 6.85165 14.678 7.60146 15.6634C8.35124 16.6493 8.84756 17.2811 9.09042 17.5586C9.33353 17.8367 9.5245 18.0446 9.6633 18.1834L10.1841 18.6831C10.5173 19.0164 11.0066 19.4156 11.6522 19.8806C12.298 20.3459 13.0129 20.8039 13.7974 21.2555C14.582 21.7065 15.4948 22.0744 16.5362 22.3591C17.5775 22.6438 18.591 22.7581 19.5769 22.7029H21.9719C22.4575 22.6609 22.8256 22.5084 23.0757 22.2447L23.1586 22.1403C23.2144 22.0574 23.2666 21.9288 23.3146 21.7553C23.3633 21.582 23.3875 21.3909 23.3875 21.1828C23.3733 20.5858 23.4187 20.0478 23.5227 19.569C23.6266 19.0901 23.7448 18.7291 23.8771 18.486C24.0093 18.2431 24.1587 18.0381 24.3248 17.8719C24.4911 17.7054 24.6097 17.6045 24.6795 17.5698C24.7486 17.5348 24.8038 17.5111 24.8453 17.4969C25.1786 17.3859 25.5709 17.4934 26.0223 17.82C26.4737 18.1463 26.8972 18.5491 27.293 19.028C27.6889 19.5073 28.1643 20.0451 28.7194 20.6418C29.2752 21.239 29.761 21.6828 30.1772 21.9747L30.5935 22.2248C30.8718 22.3913 31.2328 22.5443 31.6771 22.683C32.1209 22.8217 32.5093 22.8565 32.843 22.7872L38.1742 22.704C38.7018 22.704 39.1119 22.6166 39.4029 22.4433C39.6946 22.2698 39.868 22.0786 39.9237 21.8707C39.9795 21.6626 39.9825 21.4263 39.9344 21.1622C39.8849 20.8987 39.8363 20.7146 39.788 20.6106Z" fill="white"/>
</svg>
