<svg width="40" height="29" viewBox="0 0 40 29" fill="none" xmlns="http://www.w3.org/2000/svg">
<path d="M38.4409 2.41644C36.997 0.700107 34.3312 0 29.2401 0H10.7595C5.55187 0 2.8409 0.745259 1.40245 2.57253C0 4.35416 0 6.97924 0 10.6124V17.5372C0 24.5757 1.664 28.1495 10.7595 28.1495H29.2401C33.655 28.1495 36.1016 27.5318 37.6843 26.0169C39.3075 24.4639 40 21.9278 40 17.5372V10.6124C40 6.78092 39.8915 4.14037 38.4409 2.41644ZM25.6802 15.0308L17.2881 19.4166C17.1005 19.5147 16.8953 19.5633 16.6904 19.5633C16.4584 19.5633 16.2269 19.5008 16.0219 19.3767C15.6359 19.1428 15.4001 18.7244 15.4001 18.273V9.52959C15.4001 9.07901 15.6352 8.66098 16.0205 8.42692C16.4059 8.19287 16.8853 8.17688 17.2851 8.3846L25.6773 12.7421C26.1042 12.9638 26.3722 13.4045 26.3729 13.8854C26.3735 14.3667 26.1065 14.8081 25.6802 15.0308Z" fill="white"/>
</svg>
